<?xml version="1.0" encoding="UTF-8" standalone="no"?>
<!-- Created with Inkscape (http://www.inkscape.org/) -->

<svg
   xmlns:dc="http://purl.org/dc/elements/1.1/"
   xmlns:cc="http://creativecommons.org/ns#"
   xmlns:rdf="http://www.w3.org/1999/02/22-rdf-syntax-ns#"
   xmlns:svg="http://www.w3.org/2000/svg"
   xmlns="http://www.w3.org/2000/svg"
   xmlns:sodipodi="http://sodipodi.sourceforge.net/DTD/sodipodi-0.dtd"
   xmlns:inkscape="http://www.inkscape.org/namespaces/inkscape"
   width="1100"
   height="1100"
   viewBox="0 0 1100 1100"
   version="1.1"
   inkscape:version="0.91 r13725"
   sodipodi:docname="cw3-default.svg">
  <metadata
     id="metadata72">
    <rdf:RDF>
      <cc:Work
         rdf:about="">
        <dc:format>image/svg+xml</dc:format>
        <dc:type
           rdf:resource="http://purl.org/dc/dcmitype/StillImage" />
        <dc:title></dc:title>
      </cc:Work>
    </rdf:RDF>
  </metadata>
  <sodipodi:namedview
     pagecolor="#ffffff"
     bordercolor="#666666"
     borderopacity="1"
     objecttolerance="10"
     gridtolerance="10"
     guidetolerance="10"
     inkscape:pageopacity="0"
     inkscape:pageshadow="2"
     inkscape:window-width="981"
     inkscape:window-height="480"
     id="namedview70"
     showgrid="false"
     inkscape:zoom="0.21454545"
     inkscape:cx="-18.644068"
     inkscape:cy="545.33898"
     inkscape:window-x="0"
     inkscape:window-y="0"
     inkscape:window-maximized="0"
     inkscape:current-layer="svg2" />
  <defs
     id="defs4" />
  <g
     transform="translate(18.480681,-44.27051)"
     id="g6">
    <g
       transform="translate(116.7295,-29.670527)"
       id="g8">
      <path
         d="m 162.12948,680.62607 222.24632,0 0,174.59313 -222.2468,0 z"
         style="opacity:1;fill:#cdd6db;fill-opacity:1;stroke:none;stroke-width:1;stroke-linecap:round;stroke-linejoin:miter;stroke-miterlimit:4;stroke-dasharray:none;stroke-dashoffset:0;stroke-opacity:1"
         id="path10"
         inkscape:connector-curvature="0" />
      <path
         d="M 169.99986,558.3622 170,855.21935 57.142857,855.2192 l 0,-296.857 z"
         style="opacity:1;fill:#ccd7dd;fill-opacity:1;stroke:none;stroke-width:1;stroke-linecap:round;stroke-linejoin:miter;stroke-miterlimit:4;stroke-dasharray:none;stroke-dashoffset:0;stroke-opacity:1"
         id="path12"
         inkscape:connector-curvature="0" />
      <path
         style="opacity:1;fill:#ecedef;fill-opacity:1;stroke:none;stroke-width:1;stroke-linecap:round;stroke-linejoin:miter;stroke-miterlimit:4;stroke-dasharray:none;stroke-dashoffset:0;stroke-opacity:1"
         d="M 169.99986,604.3622 170,855.21935 l -56.85714,0 0,-250.85715 z"
         id="path14"
         inkscape:connector-curvature="0" />
      <path
         d="m 200.0102,703.8592 0,-370.52256 228.79956,-4.4e-4 0,384.66551 L 247.5,703.85958 Z"
         style="opacity:1;fill:#8fa3ac;fill-opacity:1;stroke:none;stroke-width:1;stroke-linecap:round;stroke-linejoin:miter;stroke-miterlimit:4;stroke-dasharray:none;stroke-dashoffset:0;stroke-opacity:1"
         id="path16"
         inkscape:connector-curvature="0" />
      <path
         d="m 115,352.29102 0,0.42773 -57.378906,176.76953 -29.048828,48.87305 86.427734,0 86.42773,0 L 172.37891,529.06055 115,352.29102 Z"
         style="opacity:1;fill:#ed6b00;fill-opacity:1;stroke:none;stroke-width:1;stroke-linecap:round;stroke-linejoin:miter;stroke-miterlimit:4;stroke-dasharray:none;stroke-dashoffset:0;stroke-opacity:1"
         id="path18"
         inkscape:connector-curvature="0" />
      <path
         d="m 315.16797,103.61133 -86.5957,176.96484 -56.84571,72.75977 143.44141,0 143.44141,0 -56.84571,-72.75977 -86.5957,-176.96484 z"
         style="opacity:1;fill:#ee6b00;fill-opacity:1;stroke:none;stroke-width:1;stroke-linecap:round;stroke-linejoin:miter;stroke-miterlimit:4;stroke-dasharray:none;stroke-dashoffset:0;stroke-opacity:1"
         id="path20"
         inkscape:connector-curvature="0" />
      <path
         style="opacity:1;fill:#f37b00;fill-opacity:1;stroke:none;stroke-width:1;stroke-linecap:round;stroke-linejoin:miter;stroke-miterlimit:4;stroke-dasharray:none;stroke-dashoffset:0;stroke-opacity:1"
         d="m 201.42857,578.3622 -86.42857,0 0,-226.07143 57.37797,176.76899 z"
         id="path22"
         inkscape:connector-curvature="0" />
      <path
         style="opacity:1;fill:#b0bdc3;fill-opacity:1;stroke:none;stroke-width:1;stroke-linecap:round;stroke-linejoin:miter;stroke-miterlimit:4;stroke-dasharray:none;stroke-dashoffset:0;stroke-opacity:1"
         d="m 428.80976,543.8592 0,-164.52256 -112.79956,0 0,164.52256 z"
         id="path24"
         inkscape:connector-curvature="0" />
      <path
         style="opacity:1;fill:#f27b02;fill-opacity:1;stroke:none;stroke-width:1;stroke-linecap:round;stroke-linejoin:miter;stroke-miterlimit:4;stroke-dasharray:none;stroke-dashoffset:0;stroke-opacity:1"
         d="m 458.60966,353.3362 -143.44166,0 0,-249.72444 86.59616,176.96429 z"
         id="path26"
         inkscape:connector-curvature="0" />
      <path
         d="m 286.97266,504.35352 -58.58789,125.25976 171.72461,0 171.72656,0 -58.58985,-125.25976 -113.13671,0 -113.13672,0 z"
         style="opacity:1;fill:#ec6c00;fill-opacity:1;stroke:none;stroke-width:1;stroke-linecap:round;stroke-linejoin:miter;stroke-miterlimit:4;stroke-dasharray:none;stroke-dashoffset:0;stroke-opacity:1"
         id="path28"
         inkscape:connector-curvature="0" />
      <path
         d="m 486.60714,506.46935 0,-72.5 113.03572,-1.5e-4 0,270.17872 -28.92857,0 z"
         style="opacity:1;fill:#b0bdc3;fill-opacity:1;stroke:none;stroke-width:1;stroke-linecap:round;stroke-linejoin:miter;stroke-miterlimit:4;stroke-dasharray:none;stroke-dashoffset:0;stroke-opacity:1"
         id="path30"
         inkscape:connector-curvature="0" />
      <path
         style="opacity:1;fill:#ecedef;fill-opacity:1;stroke:none;stroke-width:1;stroke-linecap:round;stroke-linejoin:miter;stroke-miterlimit:4;stroke-dasharray:none;stroke-dashoffset:0;stroke-opacity:1"
         d="m 402.129,680.6262 232.2468,-1.3e-4 0,174.59313 -232.2468,0 z"
         id="path32"
         inkscape:connector-curvature="0" />
      <path
         style="opacity:1;fill:#ccd5db;fill-opacity:1;stroke:none;stroke-width:1;stroke-linecap:round;stroke-linejoin:miter;stroke-miterlimit:4;stroke-dasharray:none;stroke-dashoffset:0;stroke-opacity:1"
         d="m 599.643,703.8592 -1.4e-4,-225.88985 -55.03572,0 0,225.88985 z"
         id="path34"
         inkscape:connector-curvature="0" />
      <path
         d="m 228.384,629.6132 0,225.606 343.452,0 0,-225.606 z"
         style="opacity:1;fill:#cdd6db;fill-opacity:1;stroke:none;stroke-width:1;stroke-linecap:round;stroke-linejoin:miter;stroke-miterlimit:4;stroke-dasharray:none;stroke-dashoffset:0;stroke-opacity:1"
         id="path36"
         inkscape:connector-curvature="0" />
      <path
         style="opacity:1;fill:#f37b00;fill-opacity:1;stroke:none;stroke-width:1;stroke-linecap:round;stroke-linejoin:miter;stroke-miterlimit:4;stroke-dasharray:none;stroke-dashoffset:0;stroke-opacity:1"
         d="m 571.836,629.6132 -171.726,0 0,-125.25891 113.13702,0 z"
         id="path38"
         inkscape:connector-curvature="0" />
      <path
         d="M 542.14258,230.75586 486.96484,395.39844 457.5,453.96875 l 84.64258,0 84.64258,0 -29.46289,-58.57031 -55.17969,-164.64258 z"
         style="opacity:1;fill:#ec6c00;fill-opacity:1;stroke:none;stroke-width:1;stroke-linecap:round;stroke-linejoin:miter;stroke-miterlimit:4;stroke-dasharray:none;stroke-dashoffset:0;stroke-opacity:1"
         id="path40"
         inkscape:connector-curvature="0" />
      <path
         style="opacity:1;fill:#f37b00;fill-opacity:1;stroke:none;stroke-width:1;stroke-linecap:round;stroke-linejoin:miter;stroke-miterlimit:4;stroke-dasharray:none;stroke-dashoffset:0;stroke-opacity:1"
         d="m 626.78586,453.9692 -84.64286,0 0,-223.21429 55.17857,164.64286 z"
         id="path42"
         inkscape:connector-curvature="0" />
      <path
         d="m 742.20958,558.8532 0,296.366 -113.13708,0 0,-296.366 z"
         style="opacity:1;fill:#cdd6db;fill-opacity:1;stroke:none;stroke-width:1;stroke-linecap:round;stroke-linejoin:miter;stroke-miterlimit:4;stroke-dasharray:none;stroke-dashoffset:0;stroke-opacity:1"
         id="path44"
         inkscape:connector-curvature="0" />
      <path
         style="opacity:1;fill:#ecedef;fill-opacity:1;stroke:none;stroke-width:1;stroke-linecap:round;stroke-linejoin:miter;stroke-miterlimit:4;stroke-dasharray:none;stroke-dashoffset:0;stroke-opacity:1"
         d="m 742.20958,604.8532 0,250.366 -55.13708,0 0,-250.366 z"
         id="path46"
         inkscape:connector-curvature="0" />
      <path
         d="m 686.14648,354.23047 -57.57812,176.27148 -29.10352,48.35157 86.68164,0 86.68164,0 -29.10351,-48.35157 -57.57813,-176.27148 z"
         style="opacity:1;fill:#ee6b00;fill-opacity:1;stroke:none;stroke-width:1;stroke-linecap:round;stroke-linejoin:miter;stroke-miterlimit:4;stroke-dasharray:none;stroke-dashoffset:0;stroke-opacity:1"
         id="path48"
         inkscape:connector-curvature="0" />
      <path
         style="opacity:1;fill:#f17c00;fill-opacity:1;stroke:none;stroke-width:1;stroke-linecap:round;stroke-linejoin:miter;stroke-miterlimit:4;stroke-dasharray:none;stroke-dashoffset:0;stroke-opacity:1"
         d="m 772.82783,578.8532 -86.68183,0 0,-224.62255 57.5787,176.27161 z"
         id="path50"
         inkscape:connector-curvature="0" />
      <path
         style="opacity:1;fill:#ecedef;fill-opacity:1;stroke:none;stroke-width:1;stroke-linecap:round;stroke-linejoin:miter;stroke-miterlimit:4;stroke-dasharray:none;stroke-dashoffset:0;stroke-opacity:1"
         d="m 400.11,629.6132 0,225.606 171.726,0 0,-225.606 z"
         id="path52"
         inkscape:connector-curvature="0" />
      <path
         d="m 400.10938,706.64844 c -30.71423,4.64286 -82.85547,34.64174 -82.85547,68.57031 l 0,80 82.85547,0 82.85742,0 0,-80 c 0,-33.92857 -52.14314,-63.92745 -82.85742,-68.57031 z"
         style="opacity:1;fill:#eb6b01;fill-opacity:1;stroke:none;stroke-width:1;stroke-linecap:round;stroke-linejoin:miter;stroke-miterlimit:4;stroke-dasharray:none;stroke-dashoffset:0;stroke-opacity:1"
         id="path54"
         inkscape:connector-curvature="0" />
      <path
         d="m 400.11,706.64777 0,148.57143 82.85714,0 c 0,0 0,-46.07143 0,-80 0,-33.92857 -52.14286,-63.92857 -82.85714,-68.57143 z"
         style="opacity:1;fill:#f37b00;fill-opacity:1;stroke:none;stroke-width:1;stroke-linecap:round;stroke-linejoin:miter;stroke-miterlimit:4;stroke-dasharray:none;stroke-dashoffset:0;stroke-opacity:1"
         id="path56"
         inkscape:connector-curvature="0" />
    </g>
    <g
       transform="translate(116.7295,-35.670526)"
       id="g58">
      <path
         d="m -4.7868017,870.13885 c 4.01629495,14.55002 9.437739,18.22786 17.8801237,20.7222 8.442386,2.49434 23.216551,7.09927 29.740212,13.23917 6.523663,6.13997 12.663577,13.81485 18.035997,17.4604 5.372427,3.64556 20.914088,15.34983 23.024685,28.97276 2.110596,13.62293 -0.767488,26.8621 20.530344,32.61827 21.29782,5.7562 29.1646,19.18735 32.23455,21.10605 3.06996,1.9187 11.51235,3.8374 16.11728,1.535 4.60494,-2.3025 8.05864,-3.0701 11.32047,0.3837 3.26183,3.4537 7.12618,7.7945 14.1134,8.2694 6.98723,0.4748 9.00722,-0.9783 14.47558,-9.8044 5.46836,-8.82615 11.32046,-16.88475 27.054,-16.30915 15.73353,0.5756 25.71089,1.1512 27.43774,5.5643 1.72686,4.413 3.45371,16.50105 8.05865,20.53035 4.60493,4.0293 4.41305,5.5643 5.75616,7.6749 1.34311,2.1106 1.53499,10.3611 6.71554,12.6636 5.18055,2.3025 1.3431,2.8781 8.25051,6.9074 6.9074,4.0293 13.04732,1.535 21.29782,9.5936 8.25048,8.0586 8.48776,23.283 19.61308,34.0012 11.12524,10.7184 22.79327,20.3512 31.47644,21.0296 8.6831,0.6784 24.89193,-2.7456 29.78465,0.7081 4.89281,3.4537 7.579,13.527 13.91074,15.5417 6.33182,2.0147 20.14667,2.974 26.19061,1.1512 6.04401,-1.8228 4.50904,-6.3318 11.3205,-8.9221 6.81147,-2.5902 19.18723,-0.096 24.5596,-1.535 5.37245,-1.439 15.63763,-4.0293 18.22793,-5.7561 2.59023,-1.7269 5.8521,-6.9074 7.77084,2.3024 1.91866,9.21 4.45205,15.0972 8.52225,20.5242 4.07027,5.4269 7.73345,16.5522 12.21066,19.13 4.47728,2.5778 12.21073,-1.2211 15.4669,-6.3767 3.25617,-5.1556 7.06736,-22.8204 12.63166,-30.879 5.56429,-8.0586 13.41779,-18.3708 17.62368,-25.8328 4.20589,-7.4621 5.56262,-12.075 7.86915,-13.2961 2.30645,-1.221 3.79887,5.834 6.51234,6.7837 2.71346,0.9497 6.91935,2.7135 10.17552,-3.2562 3.25625,-5.9697 7.32644,-10.1756 8.54748,-12.482 1.22111,-2.3065 -1.70479,-9.5743 5.5864,-21.0866 7.29111,-11.5123 11.89604,-12.2799 14.19854,-17.2686 2.30242,-4.9886 3.64555,-5.5642 11.32043,-5.1805 7.67487,0.3838 19.09415,-4.2216 24.24976,-6.121 5.15561,-1.8995 5.15561,-6.1054 8.81879,-4.4773 3.66326,1.6281 11.39664,8.6832 16.00962,17.5019 4.6129,8.8189 6.24095,15.7383 11.80364,13.9745 5.56263,-1.7638 7.73338,-1.6281 8.8188,-5.9697 1.08541,-4.3416 7.59775,-17.502 10.98962,-25.5067 3.39187,-8.0048 3.92546,-18.95005 3.54177,-27.20055 -0.38376,-8.25058 -3.64563,-9.78556 6.52366,-15.54169 10.16922,-5.75621 11.12859,-8.4424 15.92536,-13.62293 4.79684,-5.18053 5.37245,-6.71558 13.62293,-6.71558 8.25056,0 19.76291,4.02939 34.53705,-8.05864 14.77414,-12.08796 23.0247,-17.65225 24.55967,-22.44902 1.53498,-4.79684 1.82278,-8.53836 3.64556,-8.7302 1.82278,-0.19184 4.21615,2.53013 10.59279,-0.86174 6.37672,-3.39187 10.0399,-11.93934 10.92178,-15.33113 0.88187,-3.39187 4.38824,-4.72125 6.11506,-9.03837 1.72682,-4.31712 1.82278,-8.44232 1.63093,-9.78546 L 17.571018,870.25786 Z"
         style="opacity:1;fill:#904700;fill-opacity:1;stroke:none;stroke-width:1;stroke-linecap:round;stroke-linejoin:miter;stroke-miterlimit:4;stroke-dasharray:none;stroke-dashoffset:0;stroke-opacity:1"
         id="path60"
         inkscape:connector-curvature="0" />
      <path
         d="m 11.141414,875.42946 c -7.3214287,0.53571 -9.9553577,1.07142 -11.74107175,3.57142 -1.78571395,2.5 -2.18749995,5 -7.36607095,5.35715 -5.1785723,0.35714 -11.6071433,-7.67858 -10.3571433,-13.03572 1.25,-5.35714 3.392857,-9.46428 10.5357143,-13.57143 7.14285795,-4.10714 29.5054377,-7.92426 50.7186407,-8.68188 21.213203,-0.75761 98.489877,5.3033 136.875667,6.81853 38.3858,1.51523 217.04855,-0.2795 315.61998,-3.13665 98.57143,-2.85714 263.19743,-2.41919 292.99693,2.1265 29.7995,4.54568 44.14593,1.80207 55.93164,10.73065 11.78571,8.92857 -7.5,25.71428 -16.78571,25.35714 -9.28572,-0.35714 -1.42858,-11.07143 -27.14286,-10.71429 -25.71429,0.35715 -108.57143,5.35715 -160,15.35715 -51.42857,10 -193.93971,27.45464 -272.7316,20.38358 C 288.90363,908.92054 207.08127,890.73779 139.40105,885.68703 71.72083,880.63627 11.141414,875.42946 11.141414,875.42946 Z"
         style="opacity:1;fill:#2db500;fill-opacity:1;stroke:none;stroke-width:1;stroke-linecap:round;stroke-linejoin:miter;stroke-miterlimit:4;stroke-dasharray:none;stroke-dashoffset:0;stroke-opacity:1"
         id="path62"
         inkscape:connector-curvature="0" />
      <path
         style="opacity:1;fill:#b05d00;fill-opacity:1;stroke:none;stroke-width:1;stroke-linecap:round;stroke-linejoin:miter;stroke-miterlimit:4;stroke-dasharray:none;stroke-dashoffset:0;stroke-opacity:1"
         d="m 400.11,1124.1234 c 6.45919,0.7682 14.05227,0.8021 18.12178,-0.4252 6.044,-1.8228 4.50904,-6.3318 11.3205,-8.9221 6.81147,-2.5902 19.18723,-0.096 24.5596,-1.535 5.37245,-1.439 15.63763,-4.0293 18.22793,-5.7561 2.59023,-1.7269 5.8521,-6.9074 7.77084,2.3024 1.91866,9.21 4.45205,15.0972 8.52225,20.5242 4.07027,5.4269 7.73345,16.5522 12.21066,19.13 4.47728,2.5778 12.21073,-1.2211 15.4669,-6.3767 3.25617,-5.1556 7.06736,-22.8204 12.63166,-30.879 5.56429,-8.0586 13.41779,-18.3708 17.62368,-25.8328 4.20589,-7.4621 5.56262,-12.075 7.86915,-13.2961 2.30645,-1.221 3.79887,5.834 6.51234,6.7837 2.71346,0.9497 6.91935,2.7135 10.17552,-3.2562 3.25625,-5.9697 7.32644,-10.1756 8.54748,-12.482 1.22111,-2.3065 -1.70479,-9.5743 5.5864,-21.0866 7.29111,-11.5123 11.89604,-12.2799 14.19854,-17.2686 2.30242,-4.9886 3.64555,-5.5642 11.32043,-5.1805 7.67487,0.3838 19.09415,-4.2216 24.24976,-6.121 5.15561,-1.8995 5.15561,-6.1054 8.81879,-4.4773 3.66326,1.6281 11.39664,8.6832 16.00962,17.5019 4.6129,8.8189 6.24095,15.7383 11.80364,13.9745 5.56263,-1.7638 7.73338,-1.6281 8.8188,-5.9697 1.08541,-4.3416 7.59775,-17.502 10.98962,-25.5067 3.39187,-8.0048 3.92546,-18.95005 3.54177,-27.20055 -0.38376,-8.25058 -3.64563,-9.78556 6.52366,-15.54169 10.16922,-5.75621 11.12859,-8.4424 15.92536,-13.62293 4.79684,-5.18053 5.37245,-6.71558 13.62293,-6.71558 8.25056,0 19.76291,4.02939 34.53705,-8.05864 14.77414,-12.08796 23.0247,-17.65225 24.55967,-22.44902 1.53498,-4.79684 1.82278,-8.53836 3.64556,-8.7302 1.82278,-0.19184 4.21615,2.53013 10.59279,-0.86174 6.37672,-3.39187 10.0399,-11.93934 10.92178,-15.33113 0.88187,-3.39187 4.38824,-4.72125 6.11506,-9.03837 1.72682,-4.31712 1.82278,-8.44232 1.63093,-9.78546 L 400.11,871.38565 Z"
         id="path64"
         inkscape:connector-curvature="0" />
      <path
         style="opacity:1;fill:#2db500;fill-opacity:1;stroke:none;stroke-width:1;stroke-linecap:round;stroke-linejoin:miter;stroke-miterlimit:4;stroke-dasharray:none;stroke-dashoffset:0;stroke-opacity:1"
         d="m 11.141414,875.42946 c -7.3214287,0.53571 -9.9553577,1.07142 -11.74107175,3.57142 -1.78571395,2.5 -2.18749995,5 -7.36607095,5.35715 -5.1785723,0.35714 -11.6071433,-7.67858 -10.3571433,-13.03572 1.25,-5.35714 3.392857,-9.46428 10.5357143,-13.57143 7.14285795,-4.10714 29.5054377,-7.92426 50.7186407,-8.68188 21.213203,-0.75761 98.489877,5.3033 136.875667,6.81853 38.3858,1.51523 217.04855,-0.2795 315.61998,-3.13665 98.57143,-2.85714 263.19743,-2.41919 292.99693,2.1265 29.7995,4.54568 44.14593,1.80207 55.93164,10.73065 11.78571,8.92857 -7.5,25.71428 -16.78571,25.35714 -9.28572,-0.35714 -1.42858,-11.07143 -27.14286,-10.71429 -25.71429,0.35715 -108.57143,5.35715 -160,15.35715 -51.42857,10 -193.93971,27.45464 -272.7316,20.38358 C 288.90363,908.92054 207.08127,890.73779 139.40105,885.68703 71.72083,880.63627 11.141414,875.42946 11.141414,875.42946 Z"
         id="path66"
         inkscape:connector-curvature="0" />
      <path
         d="m 400.11,854.82442 c 34.72843,-0.57906 68.14475,-1.28593 95.31713,-2.07354 98.57143,-2.85715 263.19743,-2.41919 292.99693,2.1265 29.7995,4.54568 44.14593,1.80207 55.93164,10.73065 11.78571,8.92857 -7.5,25.71428 -16.78571,25.35714 -9.28572,-0.35714 -1.42858,-11.07143 -27.14286,-10.71429 -25.71429,0.35715 -108.57143,5.35715 -160,15.35715 -44.95918,8.74206 -159.56385,23.18124 -240.31713,21.95144 z"
         style="opacity:1;fill:#2dd100;fill-opacity:1;stroke:none;stroke-width:1;stroke-linecap:round;stroke-linejoin:miter;stroke-miterlimit:4;stroke-dasharray:none;stroke-dashoffset:0;stroke-opacity:1"
         id="path68"
         inkscape:connector-curvature="0" />
    </g>
  </g>
</svg>
